<svg xmlns="http://www.w3.org/2000/svg" viewBox="0 0 16 16" id="Brave--Streamline-Font-Awesome" height="16" width="16">
  <desc>
    Brave Streamline Icon: https://streamlinehq.com
  </desc>
<!--! Font Awesome Free 6.5.2 by @fontawesome - https://fontawesome.com License - https://fontawesome.com/license/free (Icons: CC BY 4.0, Fonts: SIL OFL 1.1, Code: MIT License) Copyright 2024 Fonticons, Inc.-->
  <path d="M5.592403571428571 0.16h4.809064285714285l1.3692071428571428 1.5560535714285713s1.2037964285714284 -0.3338785714285714 1.7704714285714285 0.23279642857142857 1.035325 1.0690214285714286 1.035325 1.0690214285714286l-0.36757142857142855 0.9036142857142857 0.4686535714285714 1.3385714285714283s-1.375332142857143 5.2133964285714285 -1.5346107142857142 5.850517857142857c-0.3185642857142857 1.2528071428571428 -0.5329785714285714 1.739842857142857 -1.4365928571428572 2.3739035714285714s-2.539310714285714 1.7398392857142855 -2.8057999999999996 1.9052464285714283c-0.058196428571428566 0.03675714285714285 -0.11946071428571428 0.07657857142857143 -0.18072142857142856 0.11946071428571428 -0.22973214285714286 0.15621785714285716 -0.48397142857142855 0.3308142857142857 -0.7198285714285714 0.3308142857142857 -0.23585714285714285 0 -0.4931607142857143 -0.17459642857142857 -0.7198285714285714 -0.3308142857142857 -0.061260714285714286 -0.04288214285714286 -0.122525 -0.08576785714285713 -0.18072142857142856 -0.11946071428571428 -0.2664892857142857 -0.16847142857142858 -1.9021857142857144 -1.2711857142857144 -2.8057999999999996 -1.9052464285714283s-1.1180285714285714 -1.1210964285714284 -1.4365928571428572 -2.3739035714285714c-0.16234285714285715 -0.6371214285714286 -1.5346107142857142 -5.850517857142857 -1.5346107142857142 -5.850517857142857l0.4686535714285714 -1.3385714285714283 -0.37369642857142854 -0.9036142857142857s0.4686535714285714 -0.50235 1.035325 -1.0690214285714286 1.7704714285714285 -0.23279642857142857 1.7704714285714285 -0.23279642857142857L5.592403571428571 0.16Zm2.4045321428571427 12.485189285714286c0.11333571428571428 0 0.27261785714285713 -0.14396785714285715 0.3982035714285714 -0.2573 0.018378571428571425 -0.015317857142857142 0.03675714285714285 -0.03369642857142857 0.05207142857142857 -0.04594642857142857 0.12865 -0.11333571428571428 1.4641642857142856 -1.1486642857142855 1.562182142857143 -1.2191142857142856s0.16540714285714286 -0.19909999999999997 0.058199999999999995 -0.2664892857142857c-0.08576785714285713 -0.05207142857142857 -0.30631071428571427 -0.16847142857142858 -0.6218107142857142 -0.3308142857142857 -0.09189285714285714 -0.04901071428571428 -0.19297499999999998 -0.09802142857142856 -0.29712142857142854 -0.15315714285714285 -0.4717142857142857 -0.24504642857142855 -1.0567678571428571 -0.450275 -1.1486607142857144 -0.450275s-0.6769428571428571 0.20829285714285714 -1.1486607142857144 0.450275c-0.10721071428571428 0.05513571428571429 -0.20522857142857143 0.10721071428571428 -0.29712142857142854 0.15315714285714285 -0.31549999999999995 0.16234285714285715 -0.5391035714285715 0.2787428571428571 -0.6218071428571428 0.3308142857142857 -0.11027142857142858 0.06738928571428571 -0.042885714285714284 0.1960392857142857 0.058196428571428566 0.2664892857142857s1.4335321428571428 1.1057785714285713 1.562182142857143 1.2191142857142856c0.015314285714285714 0.015314285714285714 0.03369285714285714 0.03062857142857143 0.05207142857142857 0.04594642857142857 0.12558571428571427 0.11333214285714284 0.2848678571428571 0.2573 0.3982035714285714 0.2573Zm0 -5.075553571428571c0.14396785714285715 0 0.5391071428571429 -0.09189285714285714 0.8086607142857142 -0.15315714285714285l0.061260714285714286 -0.015314285714285714c0.23892142857142856 -0.05513571428571429 0.22360714285714284 -0.19297499999999998 0.1960392857142857 -0.3982035714285714l-0.009189285714285712 -0.0735142857142857c-0.018378571428571425 -0.18684642857142855 -0.17766071428571428 -1.0138857142857143 -0.2787428571428571 -1.5407392857142856 -0.03369285714285714 -0.17765714285714285 -0.061260714285714286 -0.321625 -0.0735142857142857 -0.3951392857142857 -0.04594642857142857 -0.24811071428571427 -0.018378571428571425 -0.28792857142857137 0.021442857142857142 -0.3461285714285714 0.006125 -0.009189285714285712 0.015314285714285714 -0.021442857142857142 0.021439285714285713 -0.03369285714285714 0.042885714285714284 -0.07045357142857142 0.49009642857142854 -0.1899142857142857 0.8546071428571428 -0.29099642857142854 0.07657499999999999 -0.021439285714285713 0.1470285714285714 -0.03981785714285714 0.21135357142857142 -0.058196428571428566 0.3246857142857143 -0.09189285714285714 0.9924428571428571 -0.018378571428571425 1.3538892857142857 0.018378571428571425 0.05513571428571429 0.006125 0.10414285714285713 0.01225 0.14396428571428568 0.015314285714285714 0.2940571428571428 0.027567857142857144 0.3185607142857143 0.07045 0.22054285714285715 0.11639642857142857 -0.07045 0.03369642857142857 -0.49622142857142854 0.19297499999999998 -0.8791071428571428 0.3338785714285714 -0.14396785714285715 0.05513571428571429 -0.28180714285714287 0.10720714285714285 -0.3920785714285714 0.1470285714285714 -0.04594642857142857 0.015314285714285714 -0.09189285714285714 0.03369285714285714 -0.13783928571428572 0.05207142857142857 -0.3828857142857143 0.14090357142857143 -0.8331607142857141 0.30631071428571427 -0.8852357142857142 0.5942428571428571 -0.04594642857142857 0.2542357142857143 0.15928214285714284 0.6095571428571428 0.3461321428571429 0.9281178571428571 0.04900714285714286 0.08576785714285713 0.09801785714285713 0.16847142857142858 0.1409 0.24811071428571427 0.19297499999999998 0.3645107142857143 0.19910357142857144 0.4073928571428571 0.18685 0.5544214285714285 -0.012253571428571428 0.11946071428571428 -0.44414999999999993 0.3890142857142857 -0.6861321428571429 0.5391071428571429 -0.05513571428571429 0.03369285714285714 -0.10108214285714284 0.064325 -0.12865 0.08270357142857143 -0.024507142857142856 0.015314285714285714 -0.064325 0.04288214285714286 -0.11639999999999999 0.0735142857142857 -0.26342499999999996 0.15927857142857144 -0.8055928571428571 0.4900928571428571 -0.8055928571428571 0.6891964285714285 0 0.23892142857142856 0.7535214285714286 0.8607285714285714 0.9924428571428571 1.0169464285714285S10.049214285714285 10.167142857142856 10.324892857142856 10.219214285714285s0.7045107142857142 -0.26036428571428566 0.9556857142857142 -0.7290178571428572c0.23586071428571426 -0.4410857142857143 0.05207142857142857 -0.8729821428571428 -0.09801785714285713 -1.2252392857142855l-0.027567857142857144 -0.06738571428571428c-0.13783928571428572 -0.32468928571428574 0.058196428571428566 -0.5207285714285713 0.18991071428571427 -0.6524428571428571l0.04288214285714286 -0.04288214285714286 1.3171321428571428 -1.3998357142857143c0.03982142857142857 -0.03982142857142857 0.07657857142857143 -0.07963928571428572 0.11333571428571428 -0.11639642857142857 0.17766071428571428 -0.17459642857142857 0.3308142857142857 -0.3216285714285714 0.3308142857142857 -0.6983892857142857 0 -0.4564 -1.7612821428571428 -2.5883178571428567 -1.7612821428571428 -2.5883178571428567s-1.4856 0.2848678571428571 -1.6877642857142856 0.2848678571428571c-0.15928214285714284 0 -0.4686535714285714 -0.10720714285714285 -0.7902821428571428 -0.21747857142857144 -0.08270357142857143 -0.027567857142857144 -0.16540714285714286 -0.058199999999999995 -0.24504642857142855 -0.08270357142857143 -0.3982035714285714 -0.1317142857142857 -0.6677535714285714 -0.13477499999999998 -0.6677535714285714 -0.13477499999999998s-0.26649285714285714 0 -0.6677571428571428 0.13477499999999998c-0.08270357142857143 0.027567857142857144 -0.16540714285714286 0.05513571428571429 -0.24504642857142855 0.08270357142857143 -0.321625 0.11027142857142858 -0.6309999999999999 0.21747857142857144 -0.7902821428571428 0.21747857142857144 -0.19909999999999997 0 -1.6877642857142856 -0.2848678571428571 -1.6877642857142856 -0.2848678571428571s-1.7612821428571428 2.131917857142857 -1.7612821428571428 2.5883178571428567c0 0.3767607142857143 0.15009285714285714 0.5237892857142857 0.3308142857142857 0.6983892857142857 0.03675714285714285 0.03675714285714285 0.07657857142857143 0.0735142857142857 0.11333571428571428 0.11639642857142857l1.3201928571428572 1.4028999999999998c0.012253571428571428 0.015314285714285714 0.027567857142857144 0.027567857142857144 0.042885714285714284 0.04288214285714286 0.13171071428571426 0.1317142857142857 0.3246857142857143 0.32775 0.18991071428571427 0.6524392857142857l-0.027567857142857144 0.06738928571428571c-0.15009285714285714 0.3522571428571429 -0.3369392857142857 0.7841535714285713 -0.09801785714285713 1.2252392857142855 0.25117142857142855 0.4686535714285714 0.6800071428571428 0.7810892857142857 0.9556857142857142 0.7290178571428572s0.9219928571428571 -0.3890142857142857 1.1609142857142858 -0.5452321428571428 0.9924428571428571 -0.7780285714285714 0.9924428571428571 -1.0169499999999998c0 -0.19909999999999997 -0.5421678571428571 -0.5299142857142857 -0.8055928571428571 -0.6891964285714285 -0.052074999999999996 -0.030632142857142858 -0.09495714285714285 -0.058199999999999995 -0.11639999999999999 -0.0735142857142857 -0.027567857142857144 -0.018378571428571425 -0.0735142857142857 -0.04594642857142857 -0.12865 -0.08270357142857143 -0.24198214285714284 -0.15009285714285714 -0.6738821428571429 -0.4196428571428571 -0.6861321428571429 -0.5391035714285715 -0.012253571428571428 -0.1470285714285714 -0.009189285714285712 -0.1899142857142857 0.18684642857142855 -0.5544214285714285 0.03982142857142857 -0.07657857142857143 0.08883214285714285 -0.16234642857142856 0.14090357142857143 -0.24811071428571427 0.18378571428571427 -0.3185642857142857 0.3920785714285714 -0.6738821428571429 0.3461321428571429 -0.9281214285714285 -0.052074999999999996 -0.28792857142857137 -0.50235 -0.4533357142857143 -0.8852357142857142 -0.5942392857142856 -0.04901071428571428 -0.018378571428571425 -0.09495714285714285 -0.03369285714285714 -0.13783928571428572 -0.05207142857142857 -0.11027142857142858 -0.042885714285714284 -0.24811071428571427 -0.09495714285714285 -0.3920785714285714 -0.1470285714285714h-0.0030607142857142855c-0.3828892857142857 -0.14396785714285715 -0.8086607142857142 -0.30324999999999996 -0.8791107142857143 -0.3338785714285714 -0.09801785714285713 -0.04594642857142857 -0.07045 -0.08576785714285713 0.22054285714285715 -0.11639999999999999 0.03982142857142857 -0.0030607142857142855 0.08882857142857142 -0.009189285714285712 0.14396428571428568 -0.015314285714285714 0.36144642857142856 -0.03982142857142857 1.0292035714285712 -0.11027142857142858 1.3538892857142857 -0.018378571428571425 0.064325 0.018378571428571425 0.13477857142857141 0.03675714285714285 0.21135714285714285 0.058199999999999995 0.36450714285714286 0.09801785714285713 0.8117178571428572 0.22054285714285715 0.8546035714285714 0.2909928571428571 0.006125 0.012253571428571428 0.015314285714285714 0.021442857142857142 0.021439285714285713 0.03369285714285714 0.03982142857142857 0.058199999999999995 0.06738928571428571 0.09802142857142856 0.021442857142857142 0.3461321428571429 -0.012253571428571428 0.0735142857142857 -0.03982142857142857 0.21747857142857144 -0.0735142857142857 0.3951392857142857 -0.10108214285714284 0.5268535714285714 -0.26036428571428566 1.3538892857142857 -0.2787428571428571 1.5407392857142856 -0.0030607142857142855 0.02450357142857143 -0.006125 0.05207142857142857 -0.009189285714285712 0.0735142857142857 -0.02450357142857143 0.20522857142857143 -0.04288214285714286 0.34306785714285715 0.1960392857142857 0.3982035714285714l0.061264285714285716 0.015314285714285714c0.26954999999999996 0.061260714285714286 0.6677535714285714 0.15315357142857142 0.8086571428571427 0.15315357142857142Z" fill="#000000" stroke-width="0.0357"></path>
</svg>