<svg xmlns="http://www.w3.org/2000/svg" viewBox="0 0 16 16" id="Bluetooth--Streamline-Font-Awesome" height="16" width="16">
  <desc>
    Bluetooth Streamline Icon: https://streamlinehq.com
  </desc>
<!--! Font Awesome Free 6.5.2 by @fontawesome - https://fontawesome.com License - https://fontawesome.com/license/free (Icons: CC BY 4.0, Fonts: SIL OFL 1.1, Code: MIT License) Copyright 2024 Fonticons, Inc.-->
  <path d="m10.100875 5.399939285714285 -1.3138107142857143 1.3138107142857143 -0.009189285714285712 -2.63375 1.3229999999999997 1.3199392857142858m-1.3229999999999997 6.731371428571428 1.3199392857142858 -1.3199357142857142 -1.3138142857142856 -1.3138142857142856 -0.006125 2.63375ZM13.879999999999999 8.104125c0 6.296499999999999 -2.2019357142857143 7.735875 -5.668685714285714 7.735875S2.1199999999999997 14.400624999999998 2.1199999999999997 8.104125 4.674124999999999 0.16 8.140875 0.16 13.879999999999999 1.8106892857142856 13.879999999999999 8.104125Zm-4.854060714285715 0 2.431625 -2.713375L7.6263749999999995 1.2778142857142856v5.417560714285714L5.36625 4.43525l-0.8268749999999999 0.8238142857142857 2.838939285714286 2.848125 -2.838939285714286 2.848125 0.8238142857142857 0.8238107142857143 2.260125 -2.260125 0.07043571428571428 5.20625 3.901625 -3.904685714285714 -2.569435714285714 -2.7164392857142854Z" fill="#000000" stroke-width="0.0357"></path>
</svg>