<svg xmlns="http://www.w3.org/2000/svg" viewBox="0 0 16 16" id="Brave-Reverse--Streamline-Font-Awesome" height="16" width="16">
  <desc>
    Brave Reverse Streamline Icon: https://streamlinehq.com
  </desc>
<!--! Font Awesome Free 6.5.2 by @fontawesome - https://fontawesome.com License - https://fontawesome.com/license/free (Icons: CC BY 4.0, Fonts: SIL OFL 1.1, Code: MIT License) Copyright 2024 Fonticons, Inc.-->
  <path d="M10.265117857142856 0.16c0.09187499999999998 0 0.17762499999999998 0.03981428571428571 0.238875 0.11025l1.1668142857142856 1.3475 0.04593571428571428 -0.009185714285714285c0.28175 -0.049 0.5696249999999999 -0.067375 0.8483142857142857 -0.03675 0.35524999999999995 0.042874999999999996 0.6584357142857142 0.16537499999999997 0.8850607142857143 0.39506071428571427 0.2358142857142857 0.238875 0.471625 0.483875 0.692125 0.7227499999999999 0.07656428571428571 0.08268928571428572 0.15006428571428573 0.15924999999999997 0.2113142857142857 0.226625 0.021435714285714284 0.0245 0.042874999999999996 0.04593928571428571 0.058185714285714285 0.06125 0.104125 0.11331428571428571 0.128625 0.2480642857142857 0.08268928571428572 0.3644392857142857l-0.300125 0.7533749999999999 0.40118571428571426 1.166810714285714c0.021439285714285713 0.06125 0.0245 0.1255642857142857 0.006125 0.18987499999999996 -0.0030607142857142855 0.01225 -0.0030607142857142855 0.01225 -0.015310714285714285 0.06431428571428571 -0.018375 0.07043571428571428 -0.018375 0.07043571428571428 -0.04593928571428571 0.17762499999999998 -0.049 0.19293571428571427 -0.10718571428571427 0.40731071428571425 -0.16537499999999997 0.6400607142857143 -0.17149999999999999 0.6614999999999999 -0.34299999999999997 1.3229999999999997 -0.50225 1.9416249999999997 -0.39506071428571427 1.5281892857142856 -0.6553749999999999 2.5326892857142855 -0.716625 2.7838142857142856 -0.3399357142857143 1.3628107142857144 -0.6094357142857142 1.8374964285714284 -1.4791857142857143 2.4591857142857143 -0.7625642857142857 0.545125 -2.352 1.6415 -2.65825 1.8375 -0.030625 0.018375 -0.06125 0.03981071428571428 -0.104125 0.07043571428571428 -0.015314285714285714 0.012253571428571428 -0.098 0.06737857142857143 -0.1194392857142857 0.08268928571428572 -0.15006071428571427 0.10106071428571428 -0.2541857142857143 0.1684392857142857 -0.37056071428571424 0.22356428571428572 -0.14393928571428571 0.06737142857142857 -0.2848142857142857 0.10718571428571427 -0.42568928571428566 0.10718571428571427s-0.27868571428571426 -0.03675 -0.4256857142857143 -0.10718571428571427c-0.11331428571428571 -0.055125 -0.2205 -0.1194392857142857 -0.3705642857142857 -0.22356428571428572 -0.0245 -0.015310714285714285 -0.104125 -0.0735 -0.11943571428571427 -0.08268928571428572 -0.042874999999999996 -0.030625 -0.07656428571428571 -0.05206071428571428 -0.104125 -0.07043571428571428 -0.30624999999999997 -0.196 -1.8956892857142857 -1.2893142857142856 -2.65825 -1.8375 -0.86975 -0.6247499999999999 -1.1392499999999999 -1.0963749999999999 -1.4791892857142854 -2.4591892857142854 -0.06125 -0.25112142857142855 -0.32156071428571426 -1.255625 -0.7135607142857143 -2.771560714285714 -0.16231428571428572 -0.630875 -0.3338142857142857 -1.292375 -0.5053142857142857 -1.953875 -0.06125 -0.23275 -0.116375 -0.447125 -0.16537499999999997 -0.6400642857142858 -0.027560714285714286 -0.10718571428571427 -0.027560714285714286 -0.10718571428571427 -0.04593571428571428 -0.17762499999999998 -0.01225 -0.05206071428571428 -0.01225 -0.05206071428571428 -0.015314285714285714 -0.06431071428571428 -0.015310714285714285 -0.06125 -0.01225 -0.128625 0.006125 -0.18987499999999996l0.4011892857142857 -1.1668142857142856L1.500242857142857 3.3449999999999998c-0.04593571428571428 -0.116375 -0.021435714285714284 -0.251125 0.06125 -0.34299999999999997 0.03675 -0.03981428571428571 0.055125 -0.06125 0.07962499999999999 -0.08574999999999999 0.06125 -0.067375 0.13475 -0.14393928571428571 0.2113142857142857 -0.226625 0.22356071428571425 -0.2358142857142857 0.459375 -0.4808142857142857 0.6951857142857142 -0.7196892857142856 0.226625 -0.22968571428571427 0.5298142857142857 -0.35524999999999995 0.8850642857142856 -0.39506071428571427 0.27868571428571426 -0.03368928571428571 0.5665607142857142 -0.015314285714285714 0.8483107142857143 0.03675l0.04593928571428571 0.009185714285714285 1.166810714285714 -1.3475c0.06125 -0.0735 0.147 -0.11331071428571428 0.238875 -0.11331071428571428h4.5325Zm-0.14393571428571428 0.6461892857142857H5.876557142857142l-1.1974392857142857 1.3811857142857142c-0.07962499999999999 0.09187499999999998 -0.20518571428571425 0.1316892857142857 -0.32462499999999994 0.098 -0.006125 -0.0030607142857142855 -0.021435714285714284 -0.006125 -0.04593571428571428 -0.01225 -0.03981428571428571 -0.009185714285714285 -0.08881428571428572 -0.018375 -0.1378142857142857 -0.027560714285714286 -0.226625 -0.03981428571428571 -0.45631071428571424 -0.055125 -0.6645607142857143 -0.030625 -0.22356428571428572 0.027560714285714286 -0.398125 0.098 -0.508375 0.21131071428571427 -0.23275 0.2358142857142857 -0.4655 0.47775 -0.6829392857142856 0.7135642857142858 -0.05206071428571428 0.055125 -0.10106071428571428 0.10718571428571427 -0.147 0.15618571428571426l0.2695 0.67375c0.030625 0.0735 0.030625 0.15312499999999998 0.006125 0.2296892857142857l-0.410375 1.1851857142857143c0.01225 0.042874999999999996 0.015314285714285714 0.05818928571428571 0.03675 0.147 0.049 0.1929392857142857 0.10718928571428571 0.4073142857142857 0.16537499999999997 0.6400642857142858 0.17149999999999999 0.6614999999999999 0.34299999999999997 1.3229999999999997 0.50225 1.9416249999999997 0.3950642857142857 1.53125 0.6553749999999999 2.53575 0.716625 2.7868749999999998 0.3093142857142857 1.2280607142857143 0.50225 1.5710607142857143 1.2311249999999998 2.091685714285714 0.7533749999999999 0.539 2.336689285714286 1.6292499999999999 2.630689285714286 1.8160642857142857 0.03675 0.0245 0.07656071428571427 0.049 0.1225 0.08268571428571428 0.018375 0.01225 0.098 0.067375 0.11943571428571427 0.08268928571428572 0.1225 0.08574999999999999 0.2051892857142857 0.13475 0.28175 0.17149999999999999 0.067375 0.030625 0.1194392857142857 0.04593571428571428 0.15618928571428572 0.04593571428571428s0.08881071428571428 -0.015310714285714285 0.15618571428571426 -0.04593571428571428c0.07656428571428571 -0.03675 0.15924999999999997 -0.08574999999999999 0.28175 -0.17149999999999999 0.021439285714285713 -0.015314285714285714 0.10106428571428572 -0.0704392857142857 0.1194392857142857 -0.08268928571428572 0.049 -0.033685714285714284 0.08574999999999999 -0.058185714285714285 0.1225 -0.08268571428571428 0.294 -0.1868142857142857 1.8773107142857142 -1.2770642857142858 2.6306857142857143 -1.8160642857142857 0.7288749999999999 -0.5236857142857142 0.9248749999999999 -0.863625 1.2280642857142858 -2.091685714285714 0.06431071428571428 -0.25418928571428573 0.32156071428571426 -1.2586892857142855 0.7135607142857143 -2.7776892857142856 0.16231428571428572 -0.630875 0.3338142857142857 -1.292375 0.5053142857142857 -1.953875 0.06125 -0.23275 0.116375 -0.447125 0.16537499999999997 -0.6400607142857143 0.021435714285714284 -0.08881428571428572 0.027560714285714286 -0.104125 0.03675 -0.147l-0.4073142857142857 -1.18825c-0.0245 -0.0735 -0.0245 -0.15618928571428572 0.006125 -0.2296892857142857l0.2695 -0.67375c-0.04593571428571428 -0.049 -0.09493571428571428 -0.10106071428571428 -0.147 -0.15618571428571426 -0.2205 -0.23275 -0.45018571428571424 -0.4746892857142857 -0.6829357142857142 -0.7135642857142858 -0.11331428571428571 -0.11331071428571428 -0.2848142857142857 -0.18374999999999997 -0.508375 -0.21131071428571427 -0.20825 -0.0245 -0.441 -0.009189285714285712 -0.6645642857142857 0.030625 -0.05206071428571428 0.009185714285714285 -0.098 0.018375 -0.13781071428571426 0.027560714285714286 -0.0245 0.006125 -0.03981428571428571 0.009189285714285712 -0.04593928571428571 0.01225 -0.116375 0.03368928571428571 -0.24193571428571428 -0.006125 -0.32462499999999994 -0.098l-1.191310714285714 -1.3750607142857143ZM7.998867857142857 9.837499999999999c0.08574999999999999 0 0.6400642857142858 0.19906428571428572 1.084125 0.4318142857142857s0.765625 0.398125 0.8666892857142856 0.4655 0.03981071428571428 0.18987499999999996 -0.05206428571428571 0.25725 -1.3505607142857141 1.0596249999999998 -1.4730607142857142 1.169875 -0.300125 0.2909357142857143 -0.42262500000000003 0.2909357142857143 -0.300125 -0.18068571428571426 -0.42262500000000003 -0.2909357142857143 -1.3811892857142856 -1.1025 -1.4730642857142857 -1.169875 -0.15618571428571426 -0.18987499999999996 -0.05206071428571428 -0.25725 0.4256857142857143 -0.2296892857142857 0.8666857142857142 -0.4655 0.9953142857142857 -0.4318142857142857 1.084125 -0.4318142857142857Zm0.0030642857142857143 -7.065185714285714c0.021435714285714284 0 0.2695 0.006125 0.6278107142857143 0.128625 0.37668928571428567 0.128625 0.7870642857142857 0.28787499999999994 0.9769392857142856 0.28787499999999994s1.589435714285714 -0.2725642857142857 1.589435714285714 -0.2725642857142857 1.659875 2.0426892857142858 1.659875 2.480625 -0.20825 0.55125 -0.4195607142857143 0.777875 -1.127 1.218875 -1.2464392857142856 1.3444392857142857 -0.36443571428571425 0.32156071428571426 -0.21743571428571426 0.667625 0.35831071428571426 0.790125 0.11943571428571427 1.23725 -0.643125 0.7472499999999999 -0.9003749999999999 0.6982499999999999 -0.86975 -0.37362499999999993 -1.0933107142857141 -0.5236892857142856 -0.9340642857142857 -0.7441857142857142 -0.9340642857142857 -0.9738749999999999 0.7349999999999999 -0.6369999999999999 0.86975 -0.7319357142857142 0.7564392857142856 -0.45325 0.7686892857142856 -0.594125 0.009185714285714285 -0.18374999999999997 -0.17456428571428573 -0.532875 -0.5114357142857142 -0.8176892857142857 -0.45631071428571424 -1.127 0.5849357142857142 -0.471625 0.9646857142857141 -0.618625 1.108625 -0.41956428571428567 1.2005 -0.46243928571428566 0.067375 -0.08268571428571428 -0.20825 -0.11025 -1.0596249999999998 -0.13168571428571427 -1.4118107142857144 -0.033685714285714284 -0.9555 0.251125 -1.0045 0.3338107142857143 -0.09187499999999998 0.08268928571428572 -0.042874999999999996 0.36137499999999995 0.30931071428571427 1.617 0.3338107142857143 1.855875 0.0735 0.3950642857142857 -0.17762499999999998 0.45325 -0.6768107142857143 0.15924999999999997 -0.82075 0.15924999999999997 -0.5696249999999999 -0.10106071428571428 -0.82075 -0.15924999999999997 -0.202125 -0.214375 -0.17762499999999998 -0.45325 0.2848142857142857 -1.5771857142857142 0.3338142857142857 -1.855875 0.006125 -0.28175 -0.042874999999999996 -0.36137499999999995 -0.6523142857142857 -0.23275 -1.0045 -0.3338107142857143 -1.1361892857142857 0.006125 -1.4118142857142857 0.033685714285714284 -0.300125 0.067375 -0.20825 0.11025 0.82075 0.31849999999999995 1.2005 0.46243928571428566 0.9095642857142857 0.30624999999999997 0.9646892857142856 0.618625 -0.275625 0.777875 -0.4563142857142857 1.127 -0.18681071428571427 0.392 -0.17456071428571426 0.532875 0.630875 0.50225 0.7686857142857142 0.594125 0.86975 0.50225 0.86975 0.7319357142857142 -0.7104999999999999 0.8268749999999999 -0.9340607142857142 0.9738749999999999 -0.833 0.471625 -1.0933142857142857 0.5236892857142856 -0.6645607142857143 -0.251125 -0.9003749999999999 -0.6982499999999999 -0.0245 -0.8911892857142856 0.1194392857142857 -1.23725 -0.10106428571428572 -0.5420642857142857 -0.21743928571428572 -0.667625 -1.0351249999999999 -1.1178142857142856 -1.246435714285714 -1.3444392857142857 -0.41956428571428567 -0.34299999999999997 -0.41956428571428567 -0.777875 1.659875 -2.480625 1.659875 -2.480625 1.4026249999999998 0.2725642857142857 1.5894392857142856 0.2725642857142857 0.5971857142857142 -0.15924999999999997 0.9769357142857142 -0.28787499999999994 0.630875 -0.128625 0.630875 -0.128625h0.0030642857142857143Z" fill="#000000" stroke-width="0.0357"></path>
</svg>